<?xml version="1.0" standalone="no"?>
<!DOCTYPE svg PUBLIC "-//W3C//DTD SVG 20010904//EN"
 "http://www.w3.org/TR/2001/REC-SVG-20010904/DTD/svg10.dtd">
<svg version="1.0" xmlns="http://www.w3.org/2000/svg"
 width="121.000000pt" height="121.000000pt" viewBox="0 0 121.000000 121.000000"
 preserveAspectRatio="xMidYMid meet">
<metadata>
Created by potrace 1.11, written by Peter Selinger 2001-2013
</metadata>
<g transform="translate(0.000000,121.000000) scale(0.100000,-0.100000)"
fill="#000000" stroke="none">
<path d="M40 600 l0 -570 570 0 570 0 0 570 0 570 -570 0 -570 0 0 -570z
m1100 5 l0 -535 -535 0 -535 0 0 535 0 535 535 0 535 0 0 -535z"/>
<path d="M482 913 c-93 -46 -120 -225 -46 -313 37 -43 75 -60 137 -60 71 0
117 16 117 41 0 18 -4 19 -37 12 -56 -12 -118 -9 -146 6 -14 8 -33 31 -41 53
-28 69 -30 68 110 68 l127 0 -5 63 c-6 71 -27 111 -69 133 -37 19 -106 18
-147 -3z m112 -33 c29 -11 41 -30 50 -82 l7 -38 -101 0 c-62 0 -100 4 -100 10
0 25 30 78 55 98 30 24 51 27 89 12z"/>
<path d="M881 887 c-39 -20 -62 -59 -68 -120 -6 -57 -6 -57 -39 -57 -27 0 -34
-4 -34 -20 0 -16 7 -20 35 -20 l35 0 0 -165 0 -165 30 0 30 0 0 165 0 165 55
0 c48 0 55 2 55 20 0 18 -7 20 -55 20 l-55 0 0 40 c0 80 43 120 111 105 26 -6
29 -4 29 19 0 25 -3 26 -52 26 -29 0 -64 -6 -77 -13z"/>
<path d="M250 526 c0 -243 1 -254 21 -280 18 -23 27 -27 68 -24 38 3 46 6 46
23 0 12 -6 19 -14 17 -8 -2 -25 -1 -38 3 l-23 5 0 255 0 255 -30 0 -30 0 0
-254z"/>
</g>
</svg>
