<svg id="Layer_1" data-name="Layer 1" xmlns="http://www.w3.org/2000/svg" width="118" height="122" viewBox="0 0 118 122"><defs><style>.cls-1{fill:none;stroke:#000;stroke-width:3.01px;}</style></defs><title>lef</title><rect class="cls-1" x="3.81" y="5.78" width="111" height="110.72"/><path d="M28.24,89.76a7.52,7.52,0,0,0,.85,3.81c.57,1,1.74,1.48,3.51,1.48.68,0,1.3,0,1.87-.08a6.67,6.67,0,0,0,1.72-.39l.23,3.89a15,15,0,0,1-5.07.78c-2.91,0-5-.87-6.35-2.61a10.46,10.46,0,0,1-2-6.57V43.72h5.23Z"/><path d="M54.12,28.09a15,15,0,0,1,6.28,1.2,12,12,0,0,1,4.32,3.31,13.16,13.16,0,0,1,2.5,4.9,22.24,22.24,0,0,1,.78,6,29.57,29.57,0,0,1-.47,5.13H43.05q.08,6.81,3.27,10.36t9.59,3.56a25.09,25.09,0,0,0,5.77-.66,24.33,24.33,0,0,0,5.07-1.75l.86,3.92A26.47,26.47,0,0,1,62,66a29.15,29.15,0,0,1-6.59.75,18.85,18.85,0,0,1-7.76-1.48,15,15,0,0,1-5.5-4.08A17.57,17.57,0,0,1,38.84,55a25.55,25.55,0,0,1-1.09-7.59,25.14,25.14,0,0,1,1.13-7.74,18.82,18.82,0,0,1,3.23-6.14,14.52,14.52,0,0,1,5.15-4A15.83,15.83,0,0,1,54.12,28.09Zm-.23,4a9.37,9.37,0,0,0-4.56,1.09A10.68,10.68,0,0,0,46,36a13,13,0,0,0-2.1,3.94,15.48,15.48,0,0,0-.82,4.52H63a13.83,13.83,0,0,0-1.79-8.85C59.71,33.23,57.27,32.05,53.89,32.05Z"/><path d="M79.77,87.82V55H73V50.8h6.78V48.53q0-16.39,13.73-16.4a20.92,20.92,0,0,1,3.19.24,13,13,0,0,1,2.81.7L99,37.27a10.79,10.79,0,0,0-2.34-.59A18.07,18.07,0,0,0,94,36.49q-4.83,0-6.9,2.85c-1.37,1.9-2.06,4.92-2.06,9V50.8H96.3V55H85V87.82Z"/></svg>
